#N canvas -11 -11 1920 1156 10;
#X floatatom 229 852 5 0 0 0 - - -;
#X obj -355 -154 tgl 15 0 empty empty empty 17 7 0 10 -262144 -1 -1
0 1;
#X msg -355 -129 \; pd dsp \$1;
#X obj 230 1406 *~;
#X obj 230 1437 dac~;
#X obj 232 1137 mtof;
#X obj 227 879 select 1 2 3 4 5 6 7 8;
#X obj 250 1239 +~;
#X obj 230 1087 + 0;
#X obj 1382 901 select 1 2 3 4 5 6;
#X msg 1340 952 33;
#X msg 1380 953 38;
#X msg 1416 952 40;
#X msg 1458 952 45;
#X msg 1498 953 50;
#X msg 1533 954 52;
#X msg 165 931 69;
#X msg 204 931 71;
#X msg 245 931 73;
#X msg 287 931 74;
#X msg 326 932 76;
#X msg 362 931 78;
#X msg 437 931 81;
#X msg 399 931 80;
#X floatatom 1388 861 5 0 0 0 - - -;
#X floatatom 773 839 5 0 0 0 - - -;
#X floatatom 852 1123 5 0 0 0 - - -;
#X obj 847 1415 dac~;
#X obj 852 1096 mtof;
#X obj 857 1200 +~;
#X obj 850 1046 + 0;
#X obj 856 1275 osc~;
#X msg 940 922 71;
#X msg 970 922 73;
#X msg 1000 922 74;
#X msg 690 921 57;
#X msg 721 922 59;
#X msg 752 922 61;
#X msg 783 922 62;
#X msg 814 922 64;
#X obj 766 864 select 1 2 3 4 5 6 7 8 9 10 11 12;
#X msg 843 922 66;
#X msg 874 922 68;
#X msg 907 922 69;
#X floatatom 1416 1118 5 0 0 0 - - -;
#X obj 1415 1375 dac~;
#X obj 1415 1083 mtof;
#X obj 1435 1195 +~;
#X obj 1414 1041 + 0;
#X obj 1420 1270 osc~;
#X floatatom 227 1168 5 0 0 0 - - -;
#X obj 293 1193 *~;
#X obj 236 1316 phasor~;
#X obj 289 1167 osc~;
#X obj 301 1139 mtof;
#X obj 435 1083 vline~;
#X msg 439 1037 1 15 \, 0.7 500 25 \, 0 500 500;
#X obj 287 1114 - 0.333;
#X msg 375 1061 100;
#X obj 1468 1128 *~;
#X obj 1464 1102 osc~;
#X obj 1476 1074 mtof;
#X obj 1462 1048 + 12;
#X obj 897 1165 *~;
#X obj 905 1111 mtof;
#X obj 977 1089 vline~;
#X msg 981 1043 1 15 \, 0.7 500 25 \, 0 500 500;
#X obj 893 1139 osc~;
#X obj 891 1086 + 24.1;
#X obj 1424 1330 *~ 0.11;
#X obj 234 1365 *~ 0.08;
#X obj 856 1370 *~;
#X obj 850 1340 *~ 0.21;
#X msg 158 790 1;
#X msg 190 790 2;
#X msg 222 790 3;
#X msg 254 790 4;
#X msg 286 790 5;
#X msg 318 790 6;
#X msg 350 790 7;
#X msg 382 790 8;
#X msg 763 791 1;
#X msg 795 791 2;
#X msg 827 791 3;
#X msg 859 791 4;
#X msg 891 791 5;
#X msg 923 791 6;
#X msg 955 791 7;
#X msg 988 792 8;
#X msg 1020 792 9;
#X msg 1052 792 10;
#X msg 1084 792 11;
#X msg 1116 792 12;
#X msg 1386 802 1;
#X msg 1418 802 2;
#X msg 1450 802 3;
#X msg 1482 802 4;
#X msg 1514 802 5;
#X msg 1547 802 6;
#X obj -281 469 f;
#X obj -241 469 + 1;
#X floatatom -281 497 5 0 0 0 - - -;
#X obj -281 440 metro 1;
#X msg -356 487 -1;
#X obj -280 539 select 0 250 500 1000 1500 2000 2250 2500 3000 3250
3500 3750 4000, f 66;
#X text 168 852 horn;
#X text 724 841 flute;
#X text 1342 861 bass;
#X text -117 518 track 1;
#X obj 257 463 f;
#X obj 297 463 + 1;
#X floatatom 257 491 5 0 0 0 - - -;
#X obj 257 434 metro 1;
#X text 421 512 track 2;
#X obj 258 533 select 0 250 500 750 1000 1250 1500 1750 2000 2250 2500
2750 3000 3250 3500 3750 4000, f 85;
#X floatatom 305 13 5 0 0 0 - - -;
#X obj 305 -41 bng 15 250 50 0 empty empty empty 17 7 0 10 -262144
-1 -1;
#X obj 304 -113 tgl 15 0 empty empty empty 17 7 0 10 -262144 -1 -1
0 1;
#X msg 232 -37 0;
#X obj -281 373 tgl 15 0 empty empty empty 17 7 0 10 -262144 -1 -1
0 1;
#X obj 257 365 tgl 15 0 empty empty empty 17 7 0 10 -262144 -1 -1 0
1;
#X obj -281 251 f;
#X floatatom -281 311 5 0 0 0 - - -;
#X obj -230 251 + 1;
#X obj -281 218 bng 15 250 50 0 empty empty empty 17 7 0 10 -262144
-1 -1;
#X obj 257 243 f;
#X floatatom 257 303 5 0 0 0 - - -;
#X obj 308 242 + 1;
#X obj 257 210 bng 15 250 50 0 empty empty empty 17 7 0 10 -262144
-1 -1;
#X obj 305 -13 random 4;
#X obj 306 64 select 0 1 2 3;
#X obj 884 461 f;
#X obj 924 461 + 1;
#X floatatom 884 489 5 0 0 0 - - -;
#X obj 884 432 metro 1;
#X obj 884 531 select 0 250 500 750 1000 1250 1500 1750 2000 2250 2500
2750 3000 3250 3500 3750 4000, f 85;
#X obj 884 363 tgl 15 0 empty empty empty 17 7 0 10 -262144 -1 -1 0
1;
#X obj 884 241 f;
#X floatatom 884 301 5 0 0 0 - - -;
#X obj 935 241 + 1;
#X obj 884 208 bng 15 250 50 0 empty empty empty 17 7 0 10 -262144
-1 -1;
#X text 1048 510 track 3;
#X obj 1538 460 f;
#X obj 1578 460 + 1;
#X floatatom 1538 488 5 0 0 0 - - -;
#X obj 1538 431 metro 1;
#X obj 1538 530 select 0 250 500 750 1000 1250 1500 1750 2000 2250
2500 2750 3000 3250 3500 3750 4000, f 85;
#X obj 1538 362 tgl 15 0 empty empty empty 17 7 0 10 -262144 -1 -1
0 1;
#X obj 1538 240 f;
#X floatatom 1538 300 5 0 0 0 - - -;
#X obj 1589 240 + 1;
#X obj 1538 207 bng 15 250 50 0 empty empty empty 17 7 0 10 -262144
-1 -1;
#X text 1702 509 track 4;
#X obj 305 -77 metro 8000;
#X msg 1570 206 0;
#X obj 1538 323 == 0;
#X msg 916 207 0;
#X obj 884 324 == 0;
#X msg 289 210 0;
#X obj 257 326 == 0;
#X msg -250 217 0;
#X obj -281 334 == 0;
#X obj -11 72 select 0 1;
#X text 184 -113 On/Off button → →;
#X connect 0 0 6 0;
#X connect 1 0 2 0;
#X connect 3 0 4 0;
#X connect 3 0 4 1;
#X connect 5 0 50 0;
#X connect 6 0 16 0;
#X connect 6 0 58 0;
#X connect 6 0 56 0;
#X connect 6 1 17 0;
#X connect 6 1 56 0;
#X connect 6 1 58 0;
#X connect 6 2 18 0;
#X connect 6 2 56 0;
#X connect 6 2 58 0;
#X connect 6 3 19 0;
#X connect 6 3 56 0;
#X connect 6 3 58 0;
#X connect 6 4 20 0;
#X connect 6 4 56 0;
#X connect 6 4 58 0;
#X connect 6 5 21 0;
#X connect 6 5 56 0;
#X connect 6 5 58 0;
#X connect 6 6 23 0;
#X connect 6 6 56 0;
#X connect 6 6 58 0;
#X connect 6 7 22 0;
#X connect 6 7 56 0;
#X connect 6 7 58 0;
#X connect 7 0 52 0;
#X connect 8 0 5 0;
#X connect 8 0 57 0;
#X connect 9 0 10 0;
#X connect 9 1 11 0;
#X connect 9 2 12 0;
#X connect 9 3 13 0;
#X connect 9 4 14 0;
#X connect 9 5 15 0;
#X connect 10 0 48 0;
#X connect 11 0 48 0;
#X connect 12 0 48 0;
#X connect 13 0 48 0;
#X connect 14 0 48 0;
#X connect 15 0 48 0;
#X connect 16 0 8 0;
#X connect 17 0 8 0;
#X connect 18 0 8 0;
#X connect 19 0 8 0;
#X connect 20 0 8 0;
#X connect 21 0 8 0;
#X connect 22 0 8 0;
#X connect 23 0 8 0;
#X connect 24 0 9 0;
#X connect 25 0 40 0;
#X connect 26 0 29 0;
#X connect 28 0 26 0;
#X connect 28 0 63 1;
#X connect 29 0 31 0;
#X connect 30 0 28 0;
#X connect 30 0 68 0;
#X connect 31 0 72 0;
#X connect 32 0 30 0;
#X connect 33 0 30 0;
#X connect 34 0 30 0;
#X connect 35 0 30 0;
#X connect 36 0 30 0;
#X connect 37 0 30 0;
#X connect 38 0 30 0;
#X connect 39 0 30 0;
#X connect 40 0 35 0;
#X connect 40 0 66 0;
#X connect 40 1 36 0;
#X connect 40 1 66 0;
#X connect 40 2 37 0;
#X connect 40 2 66 0;
#X connect 40 3 38 0;
#X connect 40 3 66 0;
#X connect 40 4 39 0;
#X connect 40 4 66 0;
#X connect 40 5 66 0;
#X connect 40 5 41 0;
#X connect 40 6 42 0;
#X connect 40 6 66 0;
#X connect 40 7 66 0;
#X connect 40 7 43 0;
#X connect 40 8 66 0;
#X connect 40 8 32 0;
#X connect 40 9 66 0;
#X connect 40 9 33 0;
#X connect 40 10 66 0;
#X connect 40 10 34 0;
#X connect 40 11 66 0;
#X connect 41 0 30 0;
#X connect 42 0 30 0;
#X connect 43 0 30 0;
#X connect 44 0 47 0;
#X connect 46 0 44 0;
#X connect 46 0 59 1;
#X connect 47 0 49 0;
#X connect 48 0 46 0;
#X connect 48 0 62 0;
#X connect 49 0 69 0;
#X connect 50 0 7 0;
#X connect 51 0 7 1;
#X connect 52 0 70 0;
#X connect 53 0 51 0;
#X connect 54 0 53 0;
#X connect 55 0 3 1;
#X connect 56 0 55 0;
#X connect 57 0 54 0;
#X connect 58 0 51 1;
#X connect 59 0 47 1;
#X connect 60 0 59 0;
#X connect 61 0 60 0;
#X connect 62 0 61 0;
#X connect 63 0 29 1;
#X connect 64 0 67 0;
#X connect 65 0 71 1;
#X connect 66 0 65 0;
#X connect 67 0 63 0;
#X connect 68 0 64 0;
#X connect 69 0 45 0;
#X connect 69 0 45 1;
#X connect 70 0 3 0;
#X connect 71 0 27 0;
#X connect 71 0 27 1;
#X connect 72 0 71 0;
#X connect 73 0 0 0;
#X connect 74 0 0 0;
#X connect 75 0 0 0;
#X connect 76 0 0 0;
#X connect 77 0 0 0;
#X connect 78 0 0 0;
#X connect 79 0 0 0;
#X connect 80 0 0 0;
#X connect 81 0 25 0;
#X connect 82 0 25 0;
#X connect 83 0 25 0;
#X connect 84 0 25 0;
#X connect 85 0 25 0;
#X connect 86 0 25 0;
#X connect 87 0 25 0;
#X connect 88 0 25 0;
#X connect 89 0 25 0;
#X connect 90 0 25 0;
#X connect 91 0 25 0;
#X connect 92 0 25 0;
#X connect 93 0 24 0;
#X connect 94 0 24 0;
#X connect 95 0 24 0;
#X connect 96 0 24 0;
#X connect 97 0 24 0;
#X connect 98 0 24 0;
#X connect 99 0 100 0;
#X connect 99 0 101 0;
#X connect 100 0 99 1;
#X connect 101 0 104 0;
#X connect 102 0 99 0;
#X connect 103 0 99 0;
#X connect 103 0 0 0;
#X connect 103 0 25 0;
#X connect 103 0 24 0;
#X connect 103 0 109 0;
#X connect 103 0 131 0;
#X connect 103 0 142 0;
#X connect 104 0 73 0;
#X connect 104 0 93 0;
#X connect 104 0 81 0;
#X connect 104 1 74 0;
#X connect 104 1 82 0;
#X connect 104 2 75 0;
#X connect 104 2 96 0;
#X connect 104 2 83 0;
#X connect 104 3 77 0;
#X connect 104 3 85 0;
#X connect 104 3 93 0;
#X connect 104 4 80 0;
#X connect 104 4 96 0;
#X connect 104 4 88 0;
#X connect 104 5 93 0;
#X connect 104 6 79 0;
#X connect 104 6 87 0;
#X connect 104 7 96 0;
#X connect 104 8 78 0;
#X connect 104 8 93 0;
#X connect 104 8 86 0;
#X connect 104 9 77 0;
#X connect 104 9 85 0;
#X connect 104 10 78 0;
#X connect 104 10 86 0;
#X connect 104 10 96 0;
#X connect 104 11 77 0;
#X connect 104 11 85 0;
#X connect 104 12 103 0;
#X connect 104 12 93 0;
#X connect 109 0 110 0;
#X connect 109 0 111 0;
#X connect 110 0 109 1;
#X connect 111 0 114 0;
#X connect 112 0 109 0;
#X connect 114 0 76 0;
#X connect 114 0 94 0;
#X connect 114 0 84 0;
#X connect 114 1 77 0;
#X connect 114 1 85 0;
#X connect 114 2 78 0;
#X connect 114 2 97 0;
#X connect 114 2 86 0;
#X connect 114 3 76 0;
#X connect 114 4 77 0;
#X connect 114 4 88 0;
#X connect 114 4 94 0;
#X connect 114 5 78 0;
#X connect 114 6 76 0;
#X connect 114 6 97 0;
#X connect 114 6 91 0;
#X connect 114 7 77 0;
#X connect 114 8 78 0;
#X connect 114 8 94 0;
#X connect 114 9 76 0;
#X connect 114 9 90 0;
#X connect 114 10 77 0;
#X connect 114 10 97 0;
#X connect 114 11 78 0;
#X connect 114 12 76 0;
#X connect 114 12 94 0;
#X connect 114 12 89 0;
#X connect 114 13 77 0;
#X connect 114 13 88 0;
#X connect 114 14 78 0;
#X connect 114 14 97 0;
#X connect 114 14 89 0;
#X connect 114 15 77 0;
#X connect 114 15 88 0;
#X connect 114 16 94 0;
#X connect 114 16 103 0;
#X connect 115 0 130 0;
#X connect 116 0 129 0;
#X connect 117 0 118 0;
#X connect 117 0 153 0;
#X connect 117 0 162 0;
#X connect 118 0 115 0;
#X connect 118 0 48 0;
#X connect 119 0 102 0;
#X connect 119 0 103 0;
#X connect 120 0 112 0;
#X connect 120 0 103 0;
#X connect 121 0 123 0;
#X connect 121 0 122 0;
#X connect 122 0 161 0;
#X connect 123 0 121 1;
#X connect 124 0 121 0;
#X connect 125 0 127 0;
#X connect 125 0 126 0;
#X connect 126 0 159 0;
#X connect 127 0 125 1;
#X connect 128 0 125 0;
#X connect 129 0 115 0;
#X connect 130 0 160 0;
#X connect 130 0 128 0;
#X connect 130 0 140 0;
#X connect 130 0 151 0;
#X connect 130 1 124 0;
#X connect 130 1 158 0;
#X connect 130 1 140 0;
#X connect 130 1 151 0;
#X connect 130 2 156 0;
#X connect 130 2 128 0;
#X connect 130 2 124 0;
#X connect 130 2 151 0;
#X connect 130 3 154 0;
#X connect 130 3 140 0;
#X connect 130 3 128 0;
#X connect 130 3 124 0;
#X connect 131 0 132 0;
#X connect 131 0 133 0;
#X connect 132 0 131 1;
#X connect 133 0 135 0;
#X connect 134 0 131 0;
#X connect 135 0 77 0;
#X connect 135 0 95 0;
#X connect 135 0 85 0;
#X connect 135 1 78 0;
#X connect 135 1 86 0;
#X connect 135 2 79 0;
#X connect 135 2 98 0;
#X connect 135 2 85 0;
#X connect 135 3 77 0;
#X connect 135 4 78 0;
#X connect 135 4 86 0;
#X connect 135 4 95 0;
#X connect 135 5 79 0;
#X connect 135 6 77 0;
#X connect 135 6 98 0;
#X connect 135 6 86 0;
#X connect 135 7 78 0;
#X connect 135 8 79 0;
#X connect 135 8 95 0;
#X connect 135 9 77 0;
#X connect 135 9 85 0;
#X connect 135 10 78 0;
#X connect 135 10 98 0;
#X connect 135 11 79 0;
#X connect 135 12 77 0;
#X connect 135 12 95 0;
#X connect 135 12 86 0;
#X connect 135 13 78 0;
#X connect 135 13 85 0;
#X connect 135 14 79 0;
#X connect 135 14 98 0;
#X connect 135 14 87 0;
#X connect 135 15 78 0;
#X connect 135 15 85 0;
#X connect 135 16 95 0;
#X connect 135 16 103 0;
#X connect 136 0 134 0;
#X connect 136 0 103 0;
#X connect 137 0 139 0;
#X connect 137 0 138 0;
#X connect 138 0 157 0;
#X connect 139 0 137 1;
#X connect 140 0 137 0;
#X connect 142 0 143 0;
#X connect 142 0 144 0;
#X connect 143 0 142 1;
#X connect 144 0 146 0;
#X connect 145 0 142 0;
#X connect 146 0 73 0;
#X connect 146 0 93 0;
#X connect 146 0 81 0;
#X connect 146 1 74 0;
#X connect 146 1 82 0;
#X connect 146 2 75 0;
#X connect 146 2 96 0;
#X connect 146 2 83 0;
#X connect 146 3 73 0;
#X connect 146 4 74 0;
#X connect 146 4 93 0;
#X connect 146 4 85 0;
#X connect 146 5 75 0;
#X connect 146 6 73 0;
#X connect 146 6 96 0;
#X connect 146 7 74 0;
#X connect 146 8 75 0;
#X connect 146 8 93 0;
#X connect 146 8 81 0;
#X connect 146 9 73 0;
#X connect 146 9 82 0;
#X connect 146 10 74 0;
#X connect 146 10 96 0;
#X connect 146 10 83 0;
#X connect 146 11 75 0;
#X connect 146 12 73 0;
#X connect 146 12 93 0;
#X connect 146 12 88 0;
#X connect 146 13 74 0;
#X connect 146 14 75 0;
#X connect 146 14 96 0;
#X connect 146 14 85 0;
#X connect 146 15 74 0;
#X connect 146 16 93 0;
#X connect 146 16 103 0;
#X connect 147 0 145 0;
#X connect 147 0 103 0;
#X connect 148 0 150 0;
#X connect 148 0 149 0;
#X connect 149 0 155 0;
#X connect 150 0 148 1;
#X connect 151 0 148 0;
#X connect 153 0 116 0;
#X connect 154 0 148 0;
#X connect 155 0 147 0;
#X connect 156 0 137 0;
#X connect 157 0 136 0;
#X connect 158 0 125 0;
#X connect 159 0 120 0;
#X connect 160 0 121 0;
#X connect 161 0 119 0;
#X connect 162 0 124 0;
#X connect 162 0 128 0;
#X connect 162 0 140 0;
#X connect 162 0 151 0;
#X connect 162 1 160 0;
#X connect 162 1 128 0;
#X connect 162 1 140 0;
#X connect 162 1 151 0;
