#N canvas 1015 156 1612 958 10;
#X obj 189 125 bng 15 250 50 0 empty empty empty 17 7 0 10 -262144
-1 -1;
#X obj 36 17 tgl 15 0 empty empty empty 17 7 0 10 -262144 -1 -1 0 1
;
#X msg 36 37 \; pd dsp \$1;
#X obj 182 286 line;
#X obj 184 317 osc~;
#X obj 186 414 dac~;
#X obj 187 202 delay 10;
#X msg 187 232 0 200;
#X obj 297 207 delay 200;
#X obj 317 298 line;
#X obj 317 321 osc~;
#X obj 317 367 dac~;
#X obj 370 208 delay 210;
#X obj 345 342 *~ 0.6;
#X msg 114 231 135 10;
#X msg 296 230 160 10;
#X msg 369 231 0 250;
#X obj 184 363 *~ 0.4;
#X obj 176 57 r bang @hv_event;
#X connect 0 0 14 0;
#X connect 0 0 6 0;
#X connect 0 0 8 0;
#X connect 0 0 12 0;
#X connect 1 0 2 0;
#X connect 3 0 4 0;
#X connect 4 0 17 0;
#X connect 6 0 7 0;
#X connect 7 0 3 0;
#X connect 8 0 15 0;
#X connect 9 0 10 0;
#X connect 10 0 13 0;
#X connect 12 0 16 0;
#X connect 13 0 11 0;
#X connect 13 0 11 1;
#X connect 14 0 3 0;
#X connect 15 0 9 0;
#X connect 16 0 9 0;
#X connect 17 0 5 0;
#X connect 17 0 5 1;
#X connect 18 0 0 0;
