#N canvas -3 9 1528 736 10;
#X obj 118 427 qlist;
#X msg 189 289 rewind;
#X floatatom 111 455 0 0 0 0 - - -;
#X obj 165 461 print done;
#X text 127 143 set relative tempo;
#X text 243 289 go to beginning (and stop);
#X msg 191 312 clear;
#X text 232 312 empty the qlist;
#X floatatom 444 107 5 0 0 0 - - -, f 5;
#X obj 416 99 bng 15 250 50 0 empty empty empty 17 7 0 10 -262144 -1
-1;
#X obj 165 484 s selScript;
#X obj 182 396 r loadScript;
#X obj 174 191 r playScript;
#X obj 174 213 bng 15 250 50 0 empty empty empty 17 7 0 10 -262144
-1 -1;
#X obj 174 238 spigot 0;
#X obj 219 214 tgl 15 0 empty empty empty 17 7 0 10 -262144 -1 -1 1
1;
#N canvas 150 281 364 415 readScripts 0;
#X obj 114 69 bng 15 250 50 0 empty empty empty 17 7 0 10 -262144 -1
-1;
#X obj 91 166 bng 15 250 50 0 empty empty empty 17 7 0 10 -262144 -1
-1;
#X obj 119 165 bng 15 250 50 0 empty empty empty 17 7 0 10 -262144
-1 -1;
#X obj 146 164 bng 15 250 50 0 empty empty empty 17 7 0 10 -262144
-1 -1;
#X obj 114 43 r selScript;
#X obj 133 360 s loadScript;
#X obj 46 361 s playScript;
#X obj 82 313 t b a;
#X obj 112 131 select 0 1 2 3;
#X obj 114 94 random 4;
#X obj 169 168 bng 15 250 50 0 empty empty empty 17 7 0 10 -262144
-1 -1;
#X msg 107 220 read track1.txt;
#X msg 130 242 read track2.txt;
#X msg 148 264 read track3.txt;
#X msg 163 286 read track4.txt;
#X connect 0 0 9 0;
#X connect 1 0 11 0;
#X connect 2 0 12 0;
#X connect 3 0 13 0;
#X connect 4 0 0 0;
#X connect 7 0 6 0;
#X connect 7 1 5 0;
#X connect 8 0 1 0;
#X connect 8 1 2 0;
#X connect 8 2 3 0;
#X connect 8 3 10 0;
#X connect 9 0 8 0;
#X connect 10 0 14 0;
#X connect 11 0 7 0;
#X connect 12 0 7 0;
#X connect 13 0 7 0;
#X connect 14 0 7 0;
#X restore 145 115 pd readScripts;
#X obj 28 26 tgl 15 0 empty empty empty 17 7 0 10 -262144 -1 -1 1 1
;
#X msg 28 51 \; pd dsp \$1;
#X obj 445 661 *~;
#X obj 445 692 dac~;
#X obj 447 392 mtof;
#X obj 442 134 select 1 2 3 4 5 6 7 8;
#X msg 76 142 tempo 1;
#X obj 465 494 +~;
#X obj 445 342 + 0;
#X obj 1312 189 select 1 2 3 4 5 6;
#X msg 1270 240 33;
#X msg 1310 241 38;
#X msg 1346 240 40;
#X msg 1388 240 45;
#X msg 1428 241 50;
#X msg 1463 242 52;
#X msg 380 186 69;
#X msg 419 186 71;
#X msg 460 186 73;
#X msg 502 186 74;
#X msg 541 187 76;
#X msg 577 186 78;
#X msg 654 190 81;
#X msg 614 186 80;
#X obj 1319 106 r bass;
#X floatatom 1318 149 5 0 0 0 - - -, f 5;
#X obj 1288 128 bng 15 250 50 0 empty empty empty 17 7 0 10 -262144
-1 -1;
#X floatatom 832 91 5 0 0 0 - - -, f 5;
#X obj 804 83 bng 15 250 50 0 empty empty empty 17 7 0 10 -262144 -1
-1;
#X floatatom 911 375 5 0 0 0 - - -, f 5;
#X obj 906 667 dac~;
#X obj 911 348 mtof;
#X obj 916 452 +~;
#X obj 909 298 + 0;
#X obj 915 527 osc~;
#X msg 999 174 71;
#X msg 1029 174 73;
#X msg 1059 174 74;
#X obj 832 53 r flute;
#X obj 444 70 r horn;
#X msg 749 173 57;
#X msg 780 174 59;
#X msg 811 174 61;
#X msg 842 174 62;
#X msg 873 174 64;
#X obj 825 116 select 1 2 3 4 5 6 7 8 9 10 11 12;
#X msg 902 174 66;
#X msg 933 174 68;
#X msg 966 174 69;
#X floatatom 1346 406 5 0 0 0 - - -, f 5;
#X obj 1345 663 dac~;
#X obj 1345 371 mtof;
#X obj 1365 483 +~;
#X obj 1344 329 + 0;
#X obj 1350 558 osc~;
#X floatatom 442 423 5 0 0 0 - - -, f 5;
#X obj 508 448 *~;
#X obj 451 571 phasor~;
#X obj 504 422 osc~;
#X obj 516 394 mtof;
#X obj 650 338 vline~;
#X msg 654 292 1 15 \, 0.7 500 25 \, 0 500 500;
#X obj 502 369 - 0.333;
#X msg 590 316 100;
#X obj 1398 416 *~;
#X obj 1394 390 osc~;
#X obj 1406 362 mtof;
#X obj 1392 336 + 12;
#X obj 956 417 *~;
#X obj 964 363 mtof;
#X obj 1036 341 vline~;
#X msg 1040 295 1 15 \, 0.7 500 25 \, 0 500 500;
#X obj 952 391 osc~;
#X obj 950 338 + 24.1;
#X msg 174 376 read track1.txt;
#X obj 1354 618 *~ 0.11;
#X obj 449 620 *~ 0.08;
#X obj 915 622 *~;
#X obj 909 592 *~ 0.21;
#X connect 0 0 2 0;
#X connect 0 1 3 0;
#X connect 0 1 10 0;
#X connect 1 0 0 0;
#X connect 6 0 0 0;
#X connect 8 0 22 0;
#X connect 11 0 0 0;
#X connect 12 0 13 0;
#X connect 13 0 14 0;
#X connect 14 0 0 0;
#X connect 15 0 14 1;
#X connect 17 0 18 0;
#X connect 19 0 20 0;
#X connect 19 0 20 1;
#X connect 21 0 72 0;
#X connect 22 0 33 0;
#X connect 22 0 80 0;
#X connect 22 0 78 0;
#X connect 22 1 34 0;
#X connect 22 1 78 0;
#X connect 22 1 80 0;
#X connect 22 2 35 0;
#X connect 22 2 78 0;
#X connect 22 2 80 0;
#X connect 22 3 36 0;
#X connect 22 3 78 0;
#X connect 22 3 80 0;
#X connect 22 4 37 0;
#X connect 22 4 78 0;
#X connect 22 4 80 0;
#X connect 22 5 38 0;
#X connect 22 5 78 0;
#X connect 22 5 80 0;
#X connect 22 6 40 0;
#X connect 22 6 78 0;
#X connect 22 6 80 0;
#X connect 22 7 39 0;
#X connect 22 7 78 0;
#X connect 22 7 80 0;
#X connect 23 0 0 0;
#X connect 24 0 74 0;
#X connect 25 0 21 0;
#X connect 25 0 79 0;
#X connect 26 0 27 0;
#X connect 26 1 28 0;
#X connect 26 2 29 0;
#X connect 26 3 30 0;
#X connect 26 4 31 0;
#X connect 26 5 32 0;
#X connect 27 0 70 0;
#X connect 28 0 70 0;
#X connect 29 0 70 0;
#X connect 30 0 70 0;
#X connect 31 0 70 0;
#X connect 32 0 70 0;
#X connect 33 0 25 0;
#X connect 34 0 25 0;
#X connect 35 0 25 0;
#X connect 36 0 25 0;
#X connect 37 0 25 0;
#X connect 38 0 25 0;
#X connect 39 0 25 0;
#X connect 40 0 25 0;
#X connect 41 0 42 0;
#X connect 41 0 43 0;
#X connect 42 0 26 0;
#X connect 44 0 62 0;
#X connect 46 0 49 0;
#X connect 48 0 46 0;
#X connect 48 0 85 1;
#X connect 49 0 51 0;
#X connect 50 0 48 0;
#X connect 50 0 90 0;
#X connect 51 0 95 0;
#X connect 52 0 50 0;
#X connect 53 0 50 0;
#X connect 54 0 50 0;
#X connect 55 0 44 0;
#X connect 55 0 45 0;
#X connect 56 0 8 0;
#X connect 56 0 9 0;
#X connect 57 0 50 0;
#X connect 58 0 50 0;
#X connect 59 0 50 0;
#X connect 60 0 50 0;
#X connect 61 0 50 0;
#X connect 62 0 57 0;
#X connect 62 0 88 0;
#X connect 62 1 58 0;
#X connect 62 1 88 0;
#X connect 62 2 59 0;
#X connect 62 2 88 0;
#X connect 62 3 60 0;
#X connect 62 3 88 0;
#X connect 62 4 61 0;
#X connect 62 4 88 0;
#X connect 62 5 88 0;
#X connect 62 5 63 0;
#X connect 62 6 64 0;
#X connect 62 6 88 0;
#X connect 62 7 88 0;
#X connect 62 7 65 0;
#X connect 62 8 88 0;
#X connect 62 8 52 0;
#X connect 62 9 88 0;
#X connect 62 9 53 0;
#X connect 62 10 88 0;
#X connect 62 10 54 0;
#X connect 62 11 88 0;
#X connect 62 12 88 0;
#X connect 63 0 50 0;
#X connect 64 0 50 0;
#X connect 65 0 50 0;
#X connect 66 0 69 0;
#X connect 68 0 66 0;
#X connect 68 0 81 1;
#X connect 69 0 71 0;
#X connect 70 0 68 0;
#X connect 70 0 84 0;
#X connect 71 0 92 0;
#X connect 72 0 24 0;
#X connect 73 0 24 1;
#X connect 74 0 93 0;
#X connect 75 0 73 0;
#X connect 76 0 75 0;
#X connect 77 0 19 1;
#X connect 78 0 77 0;
#X connect 79 0 76 0;
#X connect 80 0 73 1;
#X connect 81 0 69 1;
#X connect 82 0 81 0;
#X connect 83 0 82 0;
#X connect 84 0 83 0;
#X connect 85 0 49 1;
#X connect 86 0 89 0;
#X connect 87 0 94 1;
#X connect 88 0 87 0;
#X connect 89 0 85 0;
#X connect 90 0 86 0;
#X connect 91 0 0 0;
#X connect 92 0 67 0;
#X connect 92 0 67 1;
#X connect 93 0 19 0;
#X connect 94 0 47 0;
#X connect 94 0 47 1;
#X connect 95 0 94 0;
