#N canvas -8 -8 1536 821 10;
#X obj 79 11 tgl 15 0 empty empty empty 17 7 0 10 -262144 -1 -1 1 1
;
#X msg 81 31 \; pd dsp \$1;
#X obj 479 300 + 1;
#X obj 434 306 f;
#X obj 451 353 mod 16;
#X obj 431 272 metro 250;
#X obj 454 619 dac~;
#X text 13 11 DSP Toggle;
#X obj 446 72 f;
#X obj 478 72 + 1;
#X obj 444 0 tgl 15 0 empty empty empty 17 7 0 10 -262144 -1 -1 1 1
;
#X obj 406 238 tgl 15 0 empty empty empty 17 7 0 10 -262144 -1 -1 0
1;
#X obj 700 295 + 1;
#X obj 661 296 f;
#X obj 662 325 mod 16;
#X obj 663 266 metro 250;
#X obj 654 241 tgl 15 0 empty empty empty 17 7 0 10 -262144 -1 -1 0
1;
#X obj 227 362 + 1;
#X obj 194 363 f;
#X obj 193 390 mod 16;
#X obj 195 337 metro 250;
#X obj 196 311 tgl 15 0 empty empty empty 17 7 0 10 -262144 -1 -1 1
1;
#N canvas -8 -8 1293 821 Center 0;
#X obj 520 740 *~;
#X obj 379 390 select 0 1 2 3 4 5 6 7 8 9 10 11 12 13 14 15;
#X obj 529 521 mtof;
#X obj 337 422 bng 15 250 50 0 empty empty empty 17 7 0 10 -262144
-1 -1;
#X obj 365 423 bng 15 250 50 0 empty empty empty 17 7 0 10 -262144
-1 -1;
#X obj 389 424 bng 15 250 50 0 empty empty empty 17 7 0 10 -262144
-1 -1;
#X obj 439 424 bng 15 250 50 0 empty empty empty 17 7 0 10 -262144
-1 -1;
#X obj 491 426 bng 15 250 50 0 empty empty empty 17 7 0 10 -262144
-1 -1;
#X obj 573 428 bng 15 250 50 0 empty empty empty 17 7 0 10 -262144
-1 -1;
#X obj 656 429 bng 15 250 50 0 empty empty empty 17 7 0 10 -262144
-1 -1;
#X obj 684 430 bng 15 250 50 0 empty empty empty 17 7 0 10 -262144
-1 -1;
#X obj 721 433 bng 15 250 50 0 empty empty empty 17 7 0 10 -262144
-1 -1;
#X obj 752 429 bng 15 250 50 0 empty empty empty 17 7 0 10 -262144
-1 -1;
#X obj 602 546 vline~;
#X obj 492 651 +~;
#X obj 514 581 +~;
#X obj 513 627 *~ 100;
#X obj 507 684 osc~;
#X obj 514 604 osc~;
#X obj 536 549 +~ 0.333;
#X msg 602 519 1 175 \, 0 175 75;
#X obj 378 555 vline~;
#X msg 378 529 1 175 \, 0 500 75;
#X obj 57 682 osc~;
#X obj 62 709 *~;
#X obj 33 518 mtof;
#X obj 213 521 vline~;
#X msg 213 495 1 175 \, 0 200 50;
#X obj 956 711 *~;
#X obj 845 531 mtof;
#X obj 975 616 vline~;
#X obj 888 685 phasor~;
#X obj 842 491 74;
#X obj 897 490 76;
#X obj 56 394 select 0 1 2 3 4 5 6 7 8 9 10 11 12 13 14 15;
#X obj 884 399 select 0 1 2 3 4 5 6 7 8 9 10 11 12 13 14 15;
#X obj 355 465 62;
#X obj 403 464 64;
#X obj 440 465 66;
#X obj 480 468 69;
#X obj 515 470 74;
#X obj 555 473 73;
#X obj 585 472 71;
#X obj 625 475 69, f 4;
#X obj 660 473 71;
#X obj 700 476 69, f 4;
#X obj 847 605 osc~;
#X obj 847 628 *~ 100;
#X obj 828 655 +~;
#X obj 29 636 +~;
#X obj 74 567 +~;
#X obj 73 613 *~ 100;
#X obj 74 590 osc~;
#X obj 96 535 +~ 0.025;
#X obj 847 582 +~;
#X obj 850 555 +~ 25;
#X obj 85 728 *~;
#X obj 934 735 *~;
#X msg 999 483 1 175 \, 0 200 15;
#X obj 459 180 inlet;
#X obj 526 770 *~;
#X obj 563 797 outlet~;
#X obj 933 228 inlet;
#X obj 187 691 + 0.75;
#X obj 91 491 38;
#X obj 174 489 50;
#X obj 948 488 78, f 4;
#X connect 0 0 60 0;
#X connect 1 0 3 0;
#X connect 1 0 20 0;
#X connect 1 1 4 0;
#X connect 1 1 20 0;
#X connect 1 2 5 0;
#X connect 1 2 22 0;
#X connect 1 4 6 0;
#X connect 1 4 22 0;
#X connect 1 6 7 0;
#X connect 1 6 22 0;
#X connect 1 9 8 0;
#X connect 1 9 22 0;
#X connect 1 12 9 0;
#X connect 1 12 20 0;
#X connect 1 13 10 0;
#X connect 1 13 20 0;
#X connect 1 14 11 0;
#X connect 1 14 20 0;
#X connect 1 15 12 0;
#X connect 1 15 20 0;
#X connect 2 0 19 0;
#X connect 2 0 14 0;
#X connect 3 0 36 0;
#X connect 4 0 37 0;
#X connect 5 0 38 0;
#X connect 6 0 39 0;
#X connect 7 0 40 0;
#X connect 8 0 41 0;
#X connect 9 0 42 0;
#X connect 10 0 43 0;
#X connect 11 0 44 0;
#X connect 12 0 45 0;
#X connect 13 0 0 1;
#X connect 14 0 17 0;
#X connect 15 0 18 0;
#X connect 16 0 14 1;
#X connect 17 0 0 0;
#X connect 18 0 16 0;
#X connect 19 0 15 0;
#X connect 19 0 15 0;
#X connect 20 0 13 0;
#X connect 21 0 0 1;
#X connect 22 0 21 0;
#X connect 23 0 24 0;
#X connect 24 0 56 0;
#X connect 25 0 49 0;
#X connect 25 0 53 0;
#X connect 26 0 24 1;
#X connect 27 0 26 0;
#X connect 28 0 57 0;
#X connect 29 0 48 0;
#X connect 29 0 55 0;
#X connect 30 0 28 1;
#X connect 31 0 28 0;
#X connect 32 0 29 0;
#X connect 33 0 29 0;
#X connect 34 0 27 0;
#X connect 34 0 64 0;
#X connect 34 1 27 0;
#X connect 34 1 65 0;
#X connect 34 2 27 0;
#X connect 34 2 64 0;
#X connect 34 3 27 0;
#X connect 34 3 65 0;
#X connect 34 4 27 0;
#X connect 34 4 64 0;
#X connect 34 5 27 0;
#X connect 34 5 65 0;
#X connect 34 6 27 0;
#X connect 34 6 64 0;
#X connect 34 7 27 0;
#X connect 34 7 65 0;
#X connect 34 8 27 0;
#X connect 34 8 64 0;
#X connect 34 9 27 0;
#X connect 34 9 65 0;
#X connect 34 10 27 0;
#X connect 34 10 64 0;
#X connect 34 11 27 0;
#X connect 34 11 65 0;
#X connect 34 12 27 0;
#X connect 34 12 64 0;
#X connect 34 13 27 0;
#X connect 34 13 65 0;
#X connect 34 14 27 0;
#X connect 34 14 64 0;
#X connect 34 15 27 0;
#X connect 34 15 65 0;
#X connect 35 0 32 0;
#X connect 35 0 58 0;
#X connect 35 1 33 0;
#X connect 35 1 58 0;
#X connect 35 2 58 0;
#X connect 35 2 66 0;
#X connect 35 3 32 0;
#X connect 35 3 58 0;
#X connect 35 4 33 0;
#X connect 35 4 58 0;
#X connect 35 5 58 0;
#X connect 35 5 66 0;
#X connect 35 6 32 0;
#X connect 35 6 58 0;
#X connect 35 7 33 0;
#X connect 35 7 58 0;
#X connect 35 8 58 0;
#X connect 35 8 66 0;
#X connect 35 9 32 0;
#X connect 35 9 58 0;
#X connect 35 10 33 0;
#X connect 35 10 58 0;
#X connect 35 11 58 0;
#X connect 35 11 66 0;
#X connect 35 12 32 0;
#X connect 35 12 58 0;
#X connect 35 13 33 0;
#X connect 35 13 58 0;
#X connect 35 14 58 0;
#X connect 35 14 66 0;
#X connect 35 15 33 0;
#X connect 35 15 58 0;
#X connect 36 0 2 0;
#X connect 37 0 2 0;
#X connect 38 0 2 0;
#X connect 39 0 2 0;
#X connect 40 0 2 0;
#X connect 41 0 2 0;
#X connect 42 0 2 0;
#X connect 43 0 2 0;
#X connect 44 0 2 0;
#X connect 45 0 2 0;
#X connect 46 0 47 0;
#X connect 47 0 48 1;
#X connect 48 0 31 0;
#X connect 49 0 23 0;
#X connect 50 0 52 0;
#X connect 51 0 49 1;
#X connect 52 0 51 0;
#X connect 53 0 50 0;
#X connect 53 0 50 0;
#X connect 54 0 46 0;
#X connect 55 0 54 0;
#X connect 56 0 61 0;
#X connect 57 0 61 0;
#X connect 58 0 30 0;
#X connect 59 0 34 0;
#X connect 59 0 1 0;
#X connect 59 0 35 0;
#X connect 60 0 61 0;
#X connect 62 0 57 1;
#X connect 62 0 60 1;
#X connect 62 0 63 0;
#X connect 63 0 56 1;
#X connect 64 0 25 0;
#X connect 65 0 25 0;
#X connect 66 0 29 0;
#X restore 467 469 pd Center;
#X text 479 436 Second track;
#X obj 443 138 select 0 1 2 3;
#X obj 446 109 mod 4;
#X text 121 279 First Track;
#X text 737 203 Third Track;
#N canvas -8 -8 1461 821 Begin 0;
#X obj 522 547 *~;
#X obj 381 207 select 0 1 2 3 4 5 6 7 8 9 10 11 12 13 14 15;
#X obj 531 338 mtof;
#X obj 339 239 bng 15 250 50 0 empty empty empty 17 7 0 10 -262144
-1 -1;
#X obj 367 240 bng 15 250 50 0 empty empty empty 17 7 0 10 -262144
-1 -1;
#X obj 391 241 bng 15 250 50 0 empty empty empty 17 7 0 10 -262144
-1 -1;
#X obj 441 241 bng 15 250 50 0 empty empty empty 17 7 0 10 -262144
-1 -1;
#X obj 493 243 bng 15 250 50 0 empty empty empty 17 7 0 10 -262144
-1 -1;
#X obj 575 245 bng 15 250 50 0 empty empty empty 17 7 0 10 -262144
-1 -1;
#X obj 658 246 bng 15 250 50 0 empty empty empty 17 7 0 10 -262144
-1 -1;
#X obj 686 247 bng 15 250 50 0 empty empty empty 17 7 0 10 -262144
-1 -1;
#X obj 723 250 bng 15 250 50 0 empty empty empty 17 7 0 10 -262144
-1 -1;
#X obj 754 246 bng 15 250 50 0 empty empty empty 17 7 0 10 -262144
-1 -1;
#X obj 604 363 vline~;
#X obj 494 468 +~;
#X obj 516 398 +~;
#X obj 515 444 *~ 100;
#X obj 509 501 osc~;
#X obj 516 421 osc~;
#X obj 538 366 +~ 0.333;
#X msg 604 336 1 175 \, 0 175 75;
#X obj 380 372 vline~;
#X msg 380 346 1 175 \, 0 500 75;
#X obj 64 526 *~;
#X obj 35 335 mtof;
#X obj 215 338 vline~;
#X msg 215 312 1 175 \, 0 200 50;
#X obj 958 528 *~;
#X obj 847 348 mtof;
#X obj 977 433 vline~;
#X obj 58 211 select 0 1 2 3 4 5 6 7 8 9 10 11 12 13 14 15;
#X obj 909 200 select 0 1 2 3 4 5 6 7 8 9 10 11 12 13 14 15;
#X obj 849 445 *~ 100;
#X obj 830 472 +~;
#X obj 31 453 +~;
#X obj 76 384 +~;
#X obj 75 430 *~ 100;
#X obj 98 352 +~ 0.025;
#X obj 849 399 +~;
#X obj 852 372 +~ 25;
#X obj 87 545 *~;
#X obj 936 552 *~;
#X msg 1013 110 1 175 \, 0 200 15;
#X obj 464 37 inlet;
#X obj 523 575 *~;
#X obj 522 605 outlet~;
#X obj 76 407 osc~;
#X obj 59 499 osc~;
#X obj 850 59 inlet;
#X obj 890 502 phasor~;
#X obj 848 423 osc~;
#X obj 204 504 + 0.55;
#X obj 93 308 33;
#X obj 357 282 57;
#X obj 405 281 59;
#X obj 442 282 61;
#X obj 482 285 64;
#X obj 518 287 69;
#X obj 557 290 68;
#X obj 587 289 66;
#X obj 626 292 64, f 4;
#X obj 663 290 66;
#X obj 702 293 64, f 4;
#X obj 176 305 45;
#X obj 843 307 69;
#X obj 918 308 73, f 4;
#X obj 879 307 71;
#X obj 988 310 76;
#X obj 1075 311 81;
#X obj 1182 312 80;
#X obj 1301 315 78, f 4;
#X obj 1333 317 76;
#X obj 1369 317 78;
#X obj 1408 318 76, f 4;
#X connect 0 0 44 0;
#X connect 1 0 3 0;
#X connect 1 0 20 0;
#X connect 1 1 4 0;
#X connect 1 1 20 0;
#X connect 1 2 5 0;
#X connect 1 2 22 0;
#X connect 1 4 6 0;
#X connect 1 4 22 0;
#X connect 1 6 7 0;
#X connect 1 6 22 0;
#X connect 1 9 8 0;
#X connect 1 9 22 0;
#X connect 1 12 9 0;
#X connect 1 12 20 0;
#X connect 1 13 10 0;
#X connect 1 13 20 0;
#X connect 1 14 11 0;
#X connect 1 14 20 0;
#X connect 1 15 12 0;
#X connect 1 15 20 0;
#X connect 2 0 19 0;
#X connect 2 0 14 0;
#X connect 3 0 53 0;
#X connect 4 0 54 0;
#X connect 5 0 55 0;
#X connect 6 0 56 0;
#X connect 7 0 57 0;
#X connect 8 0 58 0;
#X connect 9 0 59 0;
#X connect 10 0 60 0;
#X connect 11 0 61 0;
#X connect 12 0 62 0;
#X connect 13 0 0 1;
#X connect 14 0 17 0;
#X connect 15 0 18 0;
#X connect 16 0 14 1;
#X connect 17 0 0 0;
#X connect 18 0 16 0;
#X connect 19 0 15 0;
#X connect 19 0 15 0;
#X connect 20 0 13 0;
#X connect 21 0 0 1;
#X connect 22 0 21 0;
#X connect 23 0 40 0;
#X connect 24 0 34 0;
#X connect 24 0 37 0;
#X connect 25 0 23 1;
#X connect 26 0 25 0;
#X connect 27 0 41 0;
#X connect 28 0 33 0;
#X connect 28 0 39 0;
#X connect 29 0 27 1;
#X connect 30 0 26 0;
#X connect 30 0 52 0;
#X connect 30 1 26 0;
#X connect 30 1 63 0;
#X connect 30 2 26 0;
#X connect 30 2 52 0;
#X connect 30 3 26 0;
#X connect 30 3 63 0;
#X connect 30 4 26 0;
#X connect 30 4 52 0;
#X connect 30 5 26 0;
#X connect 30 5 63 0;
#X connect 30 6 26 0;
#X connect 30 6 52 0;
#X connect 30 7 26 0;
#X connect 30 7 63 0;
#X connect 30 8 26 0;
#X connect 30 8 52 0;
#X connect 30 9 26 0;
#X connect 30 9 63 0;
#X connect 30 10 26 0;
#X connect 30 10 52 0;
#X connect 30 11 26 0;
#X connect 30 11 63 0;
#X connect 30 12 26 0;
#X connect 30 12 52 0;
#X connect 30 13 26 0;
#X connect 30 13 63 0;
#X connect 30 14 26 0;
#X connect 30 14 52 0;
#X connect 30 15 26 0;
#X connect 30 15 63 0;
#X connect 31 0 42 0;
#X connect 31 0 64 0;
#X connect 31 1 42 0;
#X connect 31 1 66 0;
#X connect 31 2 42 0;
#X connect 31 2 65 0;
#X connect 31 4 42 0;
#X connect 31 4 67 0;
#X connect 31 6 42 0;
#X connect 31 6 68 0;
#X connect 31 9 42 0;
#X connect 31 9 69 0;
#X connect 31 12 42 0;
#X connect 31 12 70 0;
#X connect 31 13 42 0;
#X connect 31 13 71 0;
#X connect 31 14 42 0;
#X connect 31 14 72 0;
#X connect 31 15 42 0;
#X connect 31 15 73 0;
#X connect 32 0 33 1;
#X connect 33 0 49 0;
#X connect 34 0 47 0;
#X connect 35 0 46 0;
#X connect 36 0 34 1;
#X connect 37 0 35 0;
#X connect 37 0 35 0;
#X connect 38 0 50 0;
#X connect 39 0 38 0;
#X connect 40 0 45 0;
#X connect 41 0 45 0;
#X connect 42 0 29 0;
#X connect 43 0 30 0;
#X connect 43 0 1 0;
#X connect 43 0 31 0;
#X connect 44 0 45 0;
#X connect 46 0 36 0;
#X connect 47 0 23 0;
#X connect 48 0 41 1;
#X connect 48 0 44 1;
#X connect 48 0 51 0;
#X connect 49 0 27 0;
#X connect 50 0 32 0;
#X connect 51 0 40 1;
#X connect 52 0 24 0;
#X connect 53 0 2 0;
#X connect 54 0 2 0;
#X connect 55 0 2 0;
#X connect 56 0 2 0;
#X connect 57 0 2 0;
#X connect 58 0 2 0;
#X connect 59 0 2 0;
#X connect 60 0 2 0;
#X connect 61 0 2 0;
#X connect 62 0 2 0;
#X connect 63 0 24 0;
#X connect 64 0 28 0;
#X connect 65 0 28 0;
#X connect 66 0 28 0;
#X connect 67 0 28 0;
#X connect 68 0 28 0;
#X connect 69 0 28 0;
#X connect 70 0 28 0;
#X connect 71 0 28 0;
#X connect 72 0 28 0;
#X connect 73 0 28 0;
#X restore 195 453 pd Begin;
#N canvas -8 -8 1536 821 end 0;
#X obj 863 694 *~;
#X obj 722 344 select 0 1 2 3 4 5 6 7 8 9 10 11 12 13 14 15;
#X obj 872 475 mtof;
#X obj 680 376 bng 15 250 50 0 empty empty empty 17 7 0 10 -262144
-1 -1;
#X obj 708 377 bng 15 250 50 0 empty empty empty 17 7 0 10 -262144
-1 -1;
#X obj 732 378 bng 15 250 50 0 empty empty empty 17 7 0 10 -262144
-1 -1;
#X obj 782 378 bng 15 250 50 0 empty empty empty 17 7 0 10 -262144
-1 -1;
#X obj 834 380 bng 15 250 50 0 empty empty empty 17 7 0 10 -262144
-1 -1;
#X obj 916 382 bng 15 250 50 0 empty empty empty 17 7 0 10 -262144
-1 -1;
#X obj 999 383 bng 15 250 50 0 empty empty empty 17 7 0 10 -262144
-1 -1;
#X obj 1027 384 bng 15 250 50 0 empty empty empty 17 7 0 10 -262144
-1 -1;
#X obj 1064 387 bng 15 250 50 0 empty empty empty 17 7 0 10 -262144
-1 -1;
#X obj 1095 383 bng 15 250 50 0 empty empty empty 17 7 0 10 -262144
-1 -1;
#X obj 945 500 vline~;
#X obj 835 605 +~;
#X obj 857 535 +~;
#X obj 856 581 *~ 100;
#X obj 850 638 osc~;
#X obj 857 558 osc~;
#X obj 879 503 +~ 0.333;
#X msg 945 473 1 175 \, 0 175 75;
#X obj 721 509 vline~;
#X msg 721 483 1 175 \, 0 500 75;
#X obj 57 682 osc~;
#X obj 62 709 *~;
#X obj 33 518 mtof;
#X obj 15 276 vline~;
#X msg 15 250 1 175 \, 0 200 50;
#X obj 1252 691 *~;
#X obj 1141 511 mtof;
#X obj 1260 645 vline~;
#X obj 1184 665 phasor~;
#X obj 56 394 select 0 1 2 3 4 5 6 7 8 9 10 11 12 13 14 15;
#X obj 1180 379 select 0 1 2 3 4 5 6 7 8 9 10 11 12 13 14 15;
#X obj 1143 585 osc~;
#X obj 1143 608 *~ 100;
#X obj 1124 635 +~;
#X obj 29 636 +~;
#X obj 74 567 +~;
#X obj 73 613 *~ 100;
#X obj 74 590 osc~;
#X obj 96 535 +~ 0.025;
#X obj 1143 562 +~;
#X obj 1146 535 +~ 25;
#X obj 85 728 *~;
#X obj 1230 715 *~;
#X msg 1414 478 1 175 \, 0 200 15;
#X obj 497 196 inlet;
#X obj 863 722 *~;
#X obj 695 196 inlet;
#X obj 520 800 outlet~;
#X obj 143 690 + 0.75;
#X obj 91 491 40;
#X obj 174 489 52;
#X obj 698 419 64;
#X obj 746 418 66;
#X obj 1188 477 76;
#X obj 1229 475 78;
#X obj 1324 479 80, f 4;
#X obj 783 420 64;
#X obj 823 422 66;
#X obj 858 424 66;
#X obj 898 427 64;
#X obj 928 426 66;
#X obj 968 429 64, f 4;
#X obj 1002 427 66;
#X obj 1043 430 64, f 4;
#X connect 0 0 48 0;
#X connect 1 0 3 0;
#X connect 1 0 20 0;
#X connect 1 1 4 0;
#X connect 1 1 20 0;
#X connect 1 2 5 0;
#X connect 1 2 22 0;
#X connect 1 4 6 0;
#X connect 1 4 22 0;
#X connect 1 6 7 0;
#X connect 1 6 22 0;
#X connect 1 9 8 0;
#X connect 1 9 22 0;
#X connect 1 12 9 0;
#X connect 1 12 20 0;
#X connect 1 13 10 0;
#X connect 1 13 20 0;
#X connect 1 14 11 0;
#X connect 1 14 20 0;
#X connect 1 15 12 0;
#X connect 1 15 20 0;
#X connect 2 0 19 0;
#X connect 2 0 14 0;
#X connect 3 0 54 0;
#X connect 4 0 55 0;
#X connect 5 0 59 0;
#X connect 6 0 60 0;
#X connect 7 0 61 0;
#X connect 8 0 62 0;
#X connect 9 0 63 0;
#X connect 10 0 64 0;
#X connect 11 0 65 0;
#X connect 12 0 66 0;
#X connect 13 0 0 1;
#X connect 14 0 17 0;
#X connect 15 0 18 0;
#X connect 16 0 14 1;
#X connect 17 0 0 0;
#X connect 18 0 16 0;
#X connect 19 0 15 0;
#X connect 19 0 15 0;
#X connect 20 0 13 0;
#X connect 21 0 0 1;
#X connect 22 0 21 0;
#X connect 23 0 24 0;
#X connect 24 0 44 0;
#X connect 25 0 37 0;
#X connect 25 0 41 0;
#X connect 26 0 24 1;
#X connect 27 0 26 0;
#X connect 28 0 45 0;
#X connect 29 0 36 0;
#X connect 29 0 43 0;
#X connect 30 0 28 1;
#X connect 31 0 28 0;
#X connect 32 0 27 0;
#X connect 32 0 52 0;
#X connect 32 1 27 0;
#X connect 32 1 53 0;
#X connect 32 2 27 0;
#X connect 32 2 52 0;
#X connect 32 3 27 0;
#X connect 32 3 53 0;
#X connect 32 4 27 0;
#X connect 32 5 27 0;
#X connect 32 5 52 0;
#X connect 32 6 27 0;
#X connect 32 6 53 0;
#X connect 32 7 27 0;
#X connect 32 8 27 0;
#X connect 32 8 52 0;
#X connect 32 9 27 0;
#X connect 32 9 53 0;
#X connect 32 10 27 0;
#X connect 32 10 52 0;
#X connect 32 11 27 0;
#X connect 32 11 53 0;
#X connect 32 12 27 0;
#X connect 32 13 27 0;
#X connect 32 13 52 0;
#X connect 32 14 27 0;
#X connect 32 14 53 0;
#X connect 32 15 27 0;
#X connect 32 15 52 0;
#X connect 33 0 46 0;
#X connect 33 0 56 0;
#X connect 33 1 46 0;
#X connect 33 1 57 0;
#X connect 33 2 46 0;
#X connect 33 2 58 0;
#X connect 33 6 46 0;
#X connect 33 6 56 0;
#X connect 33 7 46 0;
#X connect 33 7 57 0;
#X connect 33 8 46 0;
#X connect 33 8 58 0;
#X connect 33 12 46 0;
#X connect 33 12 56 0;
#X connect 33 13 57 0;
#X connect 33 13 46 0;
#X connect 33 14 46 0;
#X connect 33 14 58 0;
#X connect 33 15 46 0;
#X connect 33 15 57 0;
#X connect 34 0 35 0;
#X connect 35 0 36 1;
#X connect 36 0 31 0;
#X connect 37 0 23 0;
#X connect 38 0 40 0;
#X connect 39 0 37 1;
#X connect 40 0 39 0;
#X connect 41 0 38 0;
#X connect 41 0 38 0;
#X connect 42 0 34 0;
#X connect 43 0 42 0;
#X connect 44 0 50 0;
#X connect 45 0 50 0;
#X connect 46 0 30 0;
#X connect 47 0 32 0;
#X connect 47 0 1 0;
#X connect 47 0 33 0;
#X connect 48 0 50 0;
#X connect 49 0 45 1;
#X connect 49 0 48 1;
#X connect 49 0 51 0;
#X connect 51 0 44 1;
#X connect 52 0 25 0;
#X connect 53 0 25 0;
#X connect 54 0 2 0;
#X connect 55 0 2 0;
#X connect 56 0 29 0;
#X connect 57 0 29 0;
#X connect 58 0 29 0;
#X connect 59 0 2 0;
#X connect 60 0 2 0;
#X connect 61 0 2 0;
#X connect 62 0 2 0;
#X connect 63 0 2 0;
#X connect 64 0 2 0;
#X connect 65 0 2 0;
#X connect 66 0 2 0;
#X restore 650 440 pd end;
#X obj 897 157 hsl 128 15 0 1 0 0 empty empty empty -2 -8 0 10 -262144
-1 -1 6800 1;
#X text 899 127 Master Volume;
#X obj 446 34 metro 8000;
#X connect 0 0 1 0;
#X connect 2 0 3 1;
#X connect 3 0 4 0;
#X connect 3 0 2 0;
#X connect 4 0 22 0;
#X connect 5 0 3 0;
#X connect 8 0 9 0;
#X connect 8 0 25 0;
#X connect 9 0 8 1;
#X connect 10 0 21 0;
#X connect 10 0 32 0;
#X connect 11 0 5 0;
#X connect 12 0 13 1;
#X connect 13 0 14 0;
#X connect 13 0 12 0;
#X connect 14 0 29 0;
#X connect 15 0 13 0;
#X connect 16 0 15 0;
#X connect 17 0 18 1;
#X connect 18 0 19 0;
#X connect 18 0 17 0;
#X connect 19 0 28 0;
#X connect 20 0 18 0;
#X connect 21 0 20 0;
#X connect 22 0 6 0;
#X connect 22 0 6 1;
#X connect 24 1 11 0;
#X connect 24 1 21 0;
#X connect 24 2 16 0;
#X connect 24 2 11 0;
#X connect 24 3 16 0;
#X connect 24 3 21 0;
#X connect 25 0 24 0;
#X connect 28 0 6 0;
#X connect 28 0 6 1;
#X connect 29 0 6 0;
#X connect 29 0 6 1;
#X connect 30 0 29 1;
#X connect 30 0 22 1;
#X connect 30 0 28 1;
#X connect 32 0 8 0;
