#N canvas 793 625 393 328 10;
#X obj 137 37 bng 15 250 50 0 empty empty empty 17 7 0 10 -262144 -1
-1;
#X obj 36 17 tgl 15 0 empty empty empty 17 7 0 10 -262144 -1 -1 0 1
;
#X msg 36 37 \; pd dsp \$1;
#X obj 130 198 line;
#X obj 132 229 osc~;
#X obj 132 298 dac~;
#X obj 135 114 delay 10;
#X msg 135 144 0 200;
#X obj 265 210 line;
#X obj 265 233 osc~;
#X obj 268 264 *~ 0.6;
#X msg 317 143 0 250;
#X obj 132 275 *~ 0.4;
#X msg 62 143 160 10;
#X msg 244 142 135 10;
#X obj 245 119 delay 250;
#X obj 318 121 delay 260;
#X connect 0 0 13 0;
#X connect 0 0 6 0;
#X connect 0 0 15 0;
#X connect 0 0 16 0;
#X connect 1 0 2 0;
#X connect 3 0 4 0;
#X connect 4 0 12 0;
#X connect 6 0 7 0;
#X connect 7 0 3 0;
#X connect 8 0 9 0;
#X connect 9 0 10 0;
#X connect 10 0 5 0;
#X connect 10 0 5 1;
#X connect 11 0 8 0;
#X connect 12 0 5 0;
#X connect 12 0 5 1;
#X connect 13 0 3 0;
#X connect 14 0 8 0;
#X connect 15 0 14 0;
#X connect 16 0 11 0;
