#N canvas -94 149 1653 866 10;
#X obj 363 254 dac~;
#X obj 369 228 *~;
#X obj 366 206 osc~;
#X obj 337 6 bng 15 250 50 0 empty empty empty 17 7 0 10 -262144 -1
-1;
#X obj 358 159 mtof;
#X msg 82 96 69 30;
#X msg 130 94 71 30;
#X obj 365 185 line;
#X obj 31 17 tgl 15 0 empty empty empty 17 7 0 10 -262144 -1 -1 0 1
;
#X msg 31 37 \; pd dsp \$1;
#X msg 177 98 74 30;
#X obj 118 69 delay 90;
#X obj 178 65 delay 150;
#X msg 234 98 69 30;
#X msg 305 98 71 30;
#X msg 352 102 74 30;
#X obj 239 65 delay 210;
#X obj 311 65 delay 270;
#X obj 371 61 delay 330;
#X msg 431 99 69 30;
#X msg 502 99 71 30;
#X msg 565 104 74 30;
#X obj 436 66 delay 390;
#X obj 508 66 delay 450;
#X obj 584 63 delay 510;
#X msg 682 55 1 10 \, 0 500 30;
#X obj 689 94 hv.vline;
#X connect 1 0 0 0;
#X connect 1 0 0 1;
#X connect 2 0 1 0;
#X connect 3 0 25 0;
#X connect 3 0 5 0;
#X connect 3 0 11 0;
#X connect 3 0 12 0;
#X connect 3 0 16 0;
#X connect 3 0 17 0;
#X connect 3 0 18 0;
#X connect 3 0 22 0;
#X connect 3 0 23 0;
#X connect 3 0 24 0;
#X connect 4 0 7 0;
#X connect 5 0 4 0;
#X connect 6 0 4 0;
#X connect 7 0 2 0;
#X connect 8 0 9 0;
#X connect 10 0 4 0;
#X connect 11 0 6 0;
#X connect 12 0 10 0;
#X connect 13 0 4 0;
#X connect 14 0 4 0;
#X connect 15 0 4 0;
#X connect 16 0 13 0;
#X connect 17 0 14 0;
#X connect 18 0 15 0;
#X connect 19 0 4 0;
#X connect 20 0 4 0;
#X connect 21 0 4 0;
#X connect 22 0 19 0;
#X connect 23 0 20 0;
#X connect 24 0 21 0;
#X connect 25 0 26 0;
#X connect 26 0 1 1;
