#N canvas 517 87 1223 1004 10;
#X obj 179 319 dac~;
#X obj 174 225 osc~;
#X obj 330 100 bng 15 250 50 0 empty empty empty 17 7 0 10 -262144
-1 -1;
#X obj 31 18 tgl 15 0 empty empty empty 17 7 0 10 -262144 -1 -1 0 1
;
#X msg 31 38 \; pd dsp \$1;
#N canvas 0 50 450 300 bellenv 0;
#X obj 230 119 vline~;
#X obj 215 152 *~;
#X obj 230 70 inlet;
#X obj 215 179 outlet~;
#X obj 170 116 inlet~;
#X msg 230 93 1 1 \, 0.7 100 12 \, 0 700 112;
#X connect 0 0 1 1;
#X connect 1 0 3 0;
#X connect 2 0 5 0;
#X connect 4 0 1 0;
#X connect 5 0 0 0;
#X restore 180 261 pd bellenv;
#X obj 164 79 mtof;
#X obj 174 196 +~;
#X obj 223 164 *~;
#X obj 232 110 mtof;
#X obj 228 135 osc~;
#X obj 232 76 + 24;
#X msg 196 10 93;
#X msg 269 147 130;
#X obj 179 284 *~ 0.3;
#X obj 336 32 r bang @hv_event;
#X connect 1 0 5 0;
#X connect 2 0 5 1;
#X connect 2 0 13 0;
#X connect 2 0 12 0;
#X connect 3 0 4 0;
#X connect 5 0 14 0;
#X connect 6 0 7 0;
#X connect 7 0 1 0;
#X connect 8 0 7 1;
#X connect 9 0 10 0;
#X connect 10 0 8 0;
#X connect 11 0 9 0;
#X connect 12 0 11 0;
#X connect 12 0 6 0;
#X connect 13 0 8 1;
#X connect 14 0 0 0;
#X connect 14 0 0 1;
#X connect 15 0 2 0;
